<?xml version="1.0" standalone="no"?>
<!DOCTYPE svg PUBLIC "-//W3C//DTD SVG 20010904//EN"
 "http://www.w3.org/TR/2001/REC-SVG-20010904/DTD/svg10.dtd">
<svg version="1.0" xmlns="http://www.w3.org/2000/svg"
 width="525.000000pt" height="525.000000pt" viewBox="0 0 525.000000 525.000000"
 preserveAspectRatio="xMidYMid meet">
<metadata>
Created by potrace 1.11, written by Peter Selinger 2001-2013
</metadata>
<g transform="translate(0.000000,525.000000) scale(0.100000,-0.100000)"
fill="#000000" stroke="none">
<path d="M2215 3680 c-426 -34 -847 -120 -1165 -237 -136 -49 -363 -161 -466
-229 -124 -80 -278 -237 -327 -330 -200 -385 74 -766 739 -1028 1022 -402
2636 -349 3514 116 406 215 601 496 536 772 -28 116 -78 199 -191 312 -111
111 -216 185 -382 268 -347 174 -747 280 -1293 342 -159 19 -794 27 -965 14z
m968 -24 c631 -72 1129 -223 1462 -443 299 -198 435 -420 397 -645 -72 -421
-704 -776 -1632 -917 -475 -72 -1095 -72 -1570 0 -814 124 -1409 414 -1586
774 -227 464 309 938 1300 1149 218 47 415 74 726 100 119 10 773 -3 903 -18z"/>
<path d="M2195 3619 c-522 -42 -1003 -160 -1360 -334 -333 -162 -526 -359
-566 -577 -32 -175 62 -369 254 -524 656 -528 2251 -703 3414 -375 400 114
693 263 876 446 126 126 182 246 180 390 -1 143 -62 264 -201 397 -317 302
-970 518 -1751 578 -158 12 -687 11 -846 -1z m-997 -438 c41 -14 52 -15 52 -4
0 20 58 17 64 -4 3 -10 8 -69 12 -130 l7 -113 -26 0 c-23 0 -27 6 -37 58 -15
74 -42 116 -85 137 -35 16 -66 14 -93 -8 -22 -18 -59 -98 -71 -155 -15 -73
-14 -246 3 -310 19 -72 62 -141 94 -153 63 -24 136 27 169 121 17 48 17 48 44
34 l27 -14 -14 -52 c-25 -96 -95 -158 -188 -166 -147 -12 -249 125 -263 354
-13 209 54 367 173 409 51 18 69 18 132 -4z m1111 -1 c53 -25 57 -25 64 -1 3
14 11 17 29 14 24 -5 25 -9 35 -116 8 -96 7 -114 -6 -124 -26 -22 -35 -15 -60
47 -27 71 -79 127 -126 136 -61 11 -114 -35 -115 -100 0 -74 46 -119 174 -166
120 -45 171 -123 164 -249 -3 -58 -9 -77 -34 -113 -67 -95 -154 -114 -271 -58
l-63 29 0 -24 c0 -21 -5 -25 -30 -25 -28 0 -30 3 -31 38 -1 20 -4 81 -8 135
l-6 97 26 0 c22 0 28 -7 42 -54 24 -75 55 -118 107 -143 59 -30 93 -29 130 5
59 52 58 151 -3 195 -18 13 -70 44 -117 68 -133 69 -180 130 -180 233 0 142
148 235 279 176z m1521 -12 c0 -18 -3 -63 -7 -100 -5 -62 -8 -68 -28 -68 -27
0 -35 30 -35 131 l0 69 35 0 c33 0 35 -2 35 -32z m385 8 c32 -21 55 -20 55 3
0 14 6 17 25 14 26 -6 28 -12 40 -160 6 -66 4 -72 -16 -87 -22 -15 -23 -14
-63 67 -47 93 -79 122 -136 122 -48 0 -87 -33 -96 -81 -13 -70 35 -130 135
-169 103 -39 155 -76 179 -127 47 -96 38 -194 -25 -268 -46 -53 -81 -70 -146
-70 -42 0 -69 7 -112 30 -31 17 -59 30 -61 30 -2 0 -4 -11 -4 -25 0 -21 -5
-25 -30 -25 -30 0 -30 0 -30 58 0 33 -3 93 -6 135 l-7 77 26 0 c21 0 28 -7 37
-37 35 -108 85 -164 161 -178 92 -17 158 87 114 179 -13 26 -41 47 -131 97
-64 35 -131 80 -149 100 -69 77 -63 224 13 292 51 47 173 59 227 23z m-1185
-107 l0 -109 -25 0 c-21 0 -26 7 -36 46 -21 83 -87 122 -189 112 -49 -4 -60
-32 -60 -155 l0 -103 38 0 c44 0 78 29 84 70 2 19 10 26 31 28 l27 3 0 -135 0
-136 -30 0 c-25 0 -30 4 -30 25 0 56 -42 95 -101 95 -18 0 -19 -10 -19 -127 0
-84 5 -137 13 -153 12 -24 17 -25 96 -25 80 0 84 1 111 32 17 19 33 53 41 87
11 53 14 56 42 56 26 0 29 -3 23 -22 -3 -13 -6 -69 -6 -125 l0 -103 -260 0
-260 0 0 29 c0 25 4 29 39 35 22 3 41 13 45 22 3 8 6 143 6 299 0 305 1 300
-55 307 -24 2 -31 8 -33 30 l-3 28 248 2 c136 2 251 2 256 0 4 -2 7 -52 7
-113z m-1232 -182 c88 -352 96 -372 151 -387 36 -9 41 -14 41 -40 l0 -30 -145
0 -145 0 0 29 c0 26 4 30 40 36 22 4 40 11 40 16 0 4 -7 42 -17 84 l-16 76
-105 -3 -106 -3 -13 -50 c-16 -64 -16 -105 0 -109 6 -3 24 -7 40 -10 22 -5 27
-12 27 -36 l0 -30 -110 0 -110 0 0 29 c0 19 8 34 25 45 15 10 30 35 40 68 21
72 165 595 165 602 0 3 28 6 63 6 l62 0 73 -293z m1572 263 c0 -28 -3 -30 -34
-30 -19 0 -37 -4 -41 -9 -6 -10 106 -270 116 -271 11 0 99 206 99 232 0 28
-14 44 -45 50 -13 2 -21 13 -23 31 l-3 27 120 0 121 0 0 -29 c0 -24 -5 -30
-30 -34 -16 -4 -38 -15 -48 -25 -10 -10 -50 -90 -87 -178 l-69 -159 -4 -122
-4 -123 27 -10 c14 -5 40 -10 56 -10 27 0 30 -3 27 -27 l-3 -28 -152 -3 -153
-3 0 31 c0 26 3 30 28 30 57 0 67 18 70 132 l4 103 -93 193 c-83 174 -96 194
-121 199 -23 4 -28 11 -28 34 l0 29 135 0 135 0 0 -30z m198 -837 c-516 -2
-1360 -2 -1875 0 -516 1 -94 2 937 2 1031 0 1453 -1 938 -2z m236 -114 c55
-44 72 -127 40 -195 -46 -97 -160 -83 -195 23 -39 119 69 239 155 172z m-2270
-88 l51 -94 3 54 c4 71 -5 119 -23 119 -8 0 -15 5 -15 10 0 6 23 10 50 10 50
0 67 -13 30 -23 -19 -5 -20 -14 -20 -126 0 -139 -9 -151 -53 -68 -15 28 -43
79 -62 112 l-34 60 -1 -97 c0 -81 3 -98 15 -98 8 0 15 -7 15 -15 0 -11 -12
-15 -45 -15 -33 0 -45 4 -45 15 0 8 7 15 15 15 12 0 15 19 15 110 0 91 -3 110
-15 110 -8 0 -15 5 -15 11 0 6 17 9 41 7 41 -3 42 -4 93 -97z m320 83 c9 -24
7 -74 -3 -74 -5 0 -14 13 -19 30 -11 30 -42 45 -79 38 -13 -2 -19 -14 -21 -46
-3 -36 0 -42 16 -42 13 0 22 9 26 25 12 47 26 25 26 -40 0 -65 -12 -85 -26
-42 -7 22 -21 37 -37 37 -4 0 -7 -24 -5 -52 3 -53 3 -53 39 -56 40 -3 69 17
69 49 0 10 5 19 10 19 6 0 10 -22 10 -50 l0 -50 -100 0 c-82 0 -100 3 -100 15
0 8 7 15 15 15 12 0 15 19 15 110 0 91 -3 110 -15 110 -8 0 -15 5 -15 10 0 6
38 10 94 10 76 0 95 -3 100 -16z m116 6 c0 -5 -4 -10 -10 -10 -14 0 -12 -31 7
-108 l17 -67 19 79 c19 73 19 80 3 91 -26 20 -19 25 37 25 47 -1 50 -2 33 -15
-17 -13 -18 -19 -7 -76 21 -106 25 -108 45 -23 17 71 17 78 2 89 -25 19 -19
25 24 25 45 0 46 -1 26 -33 -7 -12 -26 -70 -41 -129 -16 -62 -33 -108 -40
-108 -7 0 -20 36 -31 86 l-19 86 -12 -43 c-6 -24 -17 -63 -23 -86 -18 -70 -34
-53 -64 72 -15 64 -34 122 -42 130 -22 21 -17 25 31 25 25 0 45 -4 45 -10z
m492 -7 c24 -22 24 -79 -1 -95 -18 -11 -18 -12 5 -31 31 -24 33 -76 3 -103
-25 -23 -173 -34 -192 -15 -9 9 -6 13 11 17 21 6 22 11 22 111 0 96 -2 105
-20 110 -46 12 -14 23 67 23 66 0 91 -4 105 -17z m158 7 c0 -5 -7 -10 -15 -10
-12 0 -15 -18 -15 -98 0 -109 6 -122 57 -122 44 0 53 21 53 123 0 76 -2 86
-22 100 -22 15 -21 16 30 16 50 1 69 -11 37 -23 -11 -4 -15 -23 -15 -78 0 -88
-14 -144 -40 -158 -10 -5 -37 -10 -59 -10 -31 0 -44 6 -60 26 -18 23 -21 41
-21 121 0 86 -2 95 -20 100 -39 10 -19 23 35 23 30 0 55 -4 55 -10z m350 -35
c0 -49 -14 -60 -24 -20 -8 30 -38 47 -74 43 -24 -3 -27 -8 -30 -45 -3 -38 -1
-43 17 -43 14 0 23 9 27 25 12 46 24 26 24 -40 0 -37 -4 -65 -10 -65 -5 0 -10
6 -10 14 0 17 -27 46 -41 46 -6 0 -9 -23 -7 -52 3 -46 6 -53 26 -56 12 -2 22
-10 22 -18 0 -11 -15 -14 -60 -14 -44 0 -60 4 -60 14 0 7 9 16 20 19 18 5 20
14 20 95 0 99 -5 122 -26 122 -8 0 -14 5 -14 10 0 6 40 10 100 10 l100 0 0
-45z m214 23 c3 -13 6 -33 6 -46 0 -30 -24 -24 -28 6 -4 27 -34 44 -70 40 -24
-3 -27 -8 -30 -45 -3 -37 0 -43 17 -43 12 0 21 8 23 22 2 12 9 23 16 26 9 3
12 -14 12 -63 0 -49 -3 -66 -12 -63 -7 3 -15 13 -17 24 -3 18 -18 34 -33 34
-5 0 -8 -25 -8 -55 0 -52 1 -55 25 -55 16 0 25 -6 25 -15 0 -12 -13 -15 -60
-15 -47 0 -60 3 -60 15 0 8 7 15 15 15 12 0 15 19 15 110 0 91 -3 110 -15 110
-8 0 -15 5 -15 10 0 6 38 10 94 10 89 0 94 -1 100 -22z m158 -100 c22 -64 44
-118 51 -121 7 -2 22 -1 35 4 21 8 22 14 22 110 0 92 -2 101 -20 106 -40 11
-18 23 40 23 33 0 60 -4 60 -10 0 -5 -9 -10 -19 -10 -25 0 -31 -19 -31 -103 0
-106 5 -117 50 -117 41 0 54 11 64 53 11 47 27 31 24 -25 l-3 -53 -152 -2
c-129 -2 -153 0 -153 12 0 8 7 15 15 15 18 0 18 -1 4 39 -10 27 -15 31 -49 31
-25 0 -40 -5 -44 -16 -9 -24 -7 -54 4 -54 6 0 10 -7 10 -15 0 -11 -11 -15 -40
-15 -40 0 -57 21 -26 33 8 3 31 58 52 122 28 82 43 115 53 113 9 -2 30 -50 53
-120z"/>
<path d="M1597 2902 c-20 -81 -40 -158 -44 -171 l-6 -23 89 7 c49 4 90 9 92
10 5 4 -79 309 -87 317 -3 4 -23 -59 -44 -140z"/>
<path d="M3704 2165 c-21 -32 -23 -119 -5 -163 15 -36 48 -50 80 -33 43 23 53
161 14 203 -24 27 -69 23 -89 -7z"/>
<path d="M2357 2183 c-4 -3 -7 -26 -7 -50 0 -47 12 -53 64 -33 33 12 37 64 7
80 -22 11 -54 13 -64 3z"/>
<path d="M2350 2020 l0 -50 38 0 c45 0 62 14 62 52 0 32 -24 48 -69 48 -30 0
-31 -1 -31 -50z"/>
<path d="M3266 2116 c-3 -13 -8 -30 -11 -38 -4 -9 4 -13 25 -13 21 0 29 4 25
13 -3 8 -8 25 -11 38 -3 13 -10 24 -14 24 -4 0 -11 -11 -14 -24z"/>
</g>
</svg>
