<?xml version="1.0" encoding="utf-8"?>
<!-- Generator: Adobe Illustrator 21.0.2, SVG Export Plug-In . SVG Version: 6.00 Build 0)  -->
<svg version="1.1" id="Layer_1" xmlns="http://www.w3.org/2000/svg" xmlns:xlink="http://www.w3.org/1999/xlink" x="0px" y="0px"
	 viewBox="0 0 29.7 30" style="enable-background:new 0 0 29.7 30;" xml:space="preserve">
<style type="text/css">
	.st0{fill:#FFFFFF;}
</style>
<circle class="st0" cx="14.8" cy="15.1" r="14.8"/>
<title>logo</title>
<g>
	<path d="M14.9,16.8c-0.1-0.1-0.2-0.1-0.4-0.1c-0.1,0-0.3,0-0.4,0.1L12,18.3h0l0.8-2.5c0.1-0.3,0-0.6-0.2-0.7l-2.1-1.5H13
		c0.3,0,0.6-0.2,0.6-0.5l0.8-2.5h0l0.8,2.5c0.1,0.3,0.4,0.5,0.6,0.5h2.6v0l-2.1,1.5c-0.2,0.2-0.3,0.5-0.2,0.7l0.8,2.5h0
		C17,18.3,14.9,16.8,14.9,16.8z M22.3,16.2c0.2-0.2,0.3-0.5,0.2-0.7l-1.1-3.4c-0.1-0.2-0.2-0.3-0.3-0.3c-0.1,0-0.2,0-0.2,0.1
		l-1.2,0.8h0L18.1,8c-0.1-0.3-0.4-0.5-0.6-0.5h-3.6c-0.3,0-0.4,0.2-0.3,0.5L14,9.3h-0.4v0H8.9c-0.3,0-0.6,0.2-0.6,0.5l-1.1,3.4
		c-0.1,0.3,0.1,0.5,0.3,0.5H9l-1.6,4.8c-0.1,0.3,0,0.6,0.2,0.7l2.9,2.1c0.1,0.1,0.2,0.1,0.2,0.1c0.1,0,0.3-0.1,0.3-0.3l0.4-1.4h0
		l0,0l4.1,3c0.1,0.1,0.3,0.1,0.4,0.1c0.1,0,0.3,0,0.4-0.1l2.9-2.1c0.2-0.2,0.2-0.4,0-0.6l-1.2-0.8v0L22.3,16.2L22.3,16.2z"/>
</g>
</svg>
