<?xml version="1.0" encoding="utf-8"?>
<!-- Generator: Adobe Illustrator 21.0.2, SVG Export Plug-In . SVG Version: 6.00 Build 0)  -->
<svg version="1.1" id="Layer_1" xmlns="http://www.w3.org/2000/svg" xmlns:xlink="http://www.w3.org/1999/xlink" x="0px" y="0px"
	 viewBox="0 0 181 181" style="enable-background:new 0 0 181 181;" xml:space="preserve">
<style type="text/css">
	.st0{fill:#FFFFFF;}
</style>
<circle class="st0" cx="90.5" cy="90.5" r="90.5"/>
<g>
	<g transform="translate(61.047)">
		<path d="M25.1,96.1L0,131.2c-1.3,1.8-3.5,2.7-5.6,2.5c-2.5-0.3-5.9-1.2-9.5-3.8c-3.5-2.6-5.5-5.5-6.6-7.8c-1-2-0.8-4.4,0.5-6.2
			L3.9,80.8c1.2-1.7,2.8-3,4.6-4l4.9-2.6c1-0.5,1.9-1.2,2.6-2.1c2.4-2.7,8.9-9.9,20.3-21.4l0.2-0.9c0-0.2,0.2-0.4,0.4-0.4l0.6-0.2
			c0.3-0.1,0.5-0.3,0.4-0.6L38,47.9c0-0.3,0.2-0.6,0.5-0.6c0.8,0,2.2,0.2,4.3,1.7c2.1,1.5,2.8,2.8,3,3.6c0.1,0.3-0.1,0.6-0.4,0.7
			l-0.8,0.2c-0.3,0.1-0.5,0.3-0.4,0.6l0.1,0.6c0,0.2-0.1,0.4-0.3,0.5l-0.8,0.5c-7.3,14.6-11.9,23-13.7,26.1c-0.6,1-0.9,2-1.1,3.2
			l-0.9,5.5C27.1,92.5,26.3,94.4,25.1,96.1z M80.2,116L55,80.8c-1.2-1.7-2.8-3-4.6-4l-4.9-2.6c-1-0.5-1.9-1.2-2.6-2.1
			c-0.6-0.7-1.4-1.6-2.5-2.8c-0.2-0.2-0.5-0.1-0.6,0.1c-3.8,7.3-6.4,11.9-7.5,13.9c-0.4,0.6-0.6,1.4-0.7,2.1c-0.3,1.6-0.3,3.2,0,4.8
			l0,0.3c0.3,2,1.1,4,2.3,5.6l25.2,35.1c1.3,1.8,3.4,2.7,5.6,2.5c2.5-0.3,6-1.2,9.5-3.8c3.5-2.5,5.5-5.5,6.6-7.8
			C81.6,120.1,81.4,117.8,80.2,116 M13.5,53.2l0.8,0.2c0.3,0.1,0.5,0.3,0.4,0.6l-0.1,0.6c0,0.2,0.1,0.4,0.3,0.5l0.8,0.5
			c1.3,2.7,2.6,5.2,3.8,7.4c0.1,0.2,0.4,0.3,0.6,0.1c1.9-2,4.2-4.4,6.8-7.2c0.2-0.2,0.2-0.6,0-0.8c-1.4-1.4-2.8-2.8-4.3-4.4
			l-0.2-0.9c0-0.2-0.2-0.4-0.4-0.4l-0.6-0.2c-0.3-0.1-0.5-0.3-0.4-0.6l0.1-0.8c0-0.3-0.2-0.6-0.5-0.6c-0.8,0-2.2,0.2-4.3,1.7
			c-2.1,1.5-2.8,2.8-3,3.6C13,52.8,13.2,53.1,13.5,53.2"/>
	</g>
</g>
</svg>
